<svg width="345" height="110" viewBox="0 0 345 110" fill="none" xmlns="http://www.w3.org/2000/svg">
  <rect x="5" y="10" width="22" height="22" rx="6" stroke="#2563EB" stroke-width="3"/>
  <rect x="37" y="10" width="22" height="22" rx="6" stroke="#2563EB" stroke-width="3"/>
  <rect x="69" y="10" width="22" height="22" rx="6" fill="#166534" stroke="#166534" stroke-width="3"/>
  <rect x="5" y="42" width="22" height="22" rx="6" stroke="#2563EB" stroke-width="3"/>
  <rect x="37" y="42" width="22" height="22" rx="6" fill="#166534" stroke="#166534" stroke-width="3"/>
  <rect x="69" y="42" width="22" height="22" rx="6" stroke="#2563EB" stroke-width="3"/>
  <rect x="5" y="74" width="22" height="22" rx="6" stroke="#2563EB" stroke-width="3"/>
  <rect x="37" y="74" width="22" height="22" rx="6" stroke="#2563EB" stroke-width="3"/>
  <rect x="69" y="74" width="22" height="22" rx="6" fill="#166534" stroke="#166534" stroke-width="3"/>

  <path d="M50 49C50 40 54.5 31.5 61.5 26.5" stroke="#166534" stroke-width="2.5" stroke-linecap="round"/>
  <path d="M50 49C55 45 61 41 68 38.5" stroke="#166534" stroke-width="2.5" stroke-linecap="round"/>
  <path d="M50 49C58 49 65.5 50.5 71.5 53.5" stroke="#166534" stroke-width="2.5" stroke-linecap="round"/>
  <path d="M60 25.5L62.5 24.5L61.5 27.5" fill="#166534"/>
  <path d="M66.5 37L69 37.5L68 40" fill="#166534"/>
  <path d="M70.5 52.5L72.5 54.5L70 55" fill="#166534"/>

  <text x="110" y="62" font-family="Inter, sans-serif" font-size="38" font-weight="600" fill="#0f172a">OfferGrid</text>
  
  <text x="110" y="86" font-family="Inter, sans-serif" font-size="14" font-weight="400" fill="#64748b" letter-spacing="1">JOB APPLICATION TRACKER</text>
</svg>
